<svg id="Layer_1" xmlns="http://www.w3.org/2000/svg" viewBox="0 0 307.5 250.6"><style>.st0{fill:#fff}</style><title>crown</title><g id="Layer_2"><path class="st0" d="M233.5 201.8c5.2-7.4 10.1-14.2 14.8-21 6.4-9.1 12.9-18.2 19-27.5 4.9-7.5 8.3-15.6 7.9-24.8-.4-9.5-7.8-17.3-17.3-18.1-1.3 0-2.6.1-3.8.4.2 4 .6 7.7.7 11.4.5 10.3-2.4 20.5-8.2 29.1-11.2 16.6-23 32.9-34.6 49.3-.5.7-1.3 1.1-2.2 1.2-11.9.1-23.9 0-35.8 0-.2 0-.3-.2-.8-.5 2.7-3.9 5.3-7.7 8-11.5 11.8-16.7 23.4-33.6 35.6-50 8-10.9 7.7-25.9 1-35.5-7.5-10.8-20.1-15.5-33.7-12.4-1.4.3-2.7.7-4 1.2-7.6 2.7-11.5 8-11.5 16.1 0 6.3-.1 12.7-.1 19v73.5H139v-84.9c0-3.9-.3-7.8-.7-11.7-.5-4.8-3.3-8.2-7.4-10.3-19.7-10-41.4.4-45.7 20-1.8 8.2-.6 16 4.2 23 12 17.2 24.2 34.3 36.3 51.4 2.9 4.1 5.7 8.1 8.8 12.6-1.2.1-1.9.2-2.6.2-11.1 0-22.3 0-33.4-.1-1.2 0-2.4-.5-3.2-1.4-10.8-15-21.5-30-32-45.2-7.5-10.8-11.4-22.7-10.6-35.9.1-1.7.3-3.4.5-5.1.4-3.3-.2-4-3.5-3.8-8.5.7-15.5 6.9-17.2 15.3-1.1 5.6-.3 11.4 2.1 16.5 3.2 6.8 6.9 13.3 11.1 19.6 8.4 12.4 17.2 24.4 25.8 36.6.6.9 1.2 1.8 2 3.1-.8.2-1.7.3-2.6.3H37.8c-1.1 0-2.2-.5-3-1.3-7.8-11.5-15.8-22.7-23.1-34.5C6.2 157.2 2 147.5.4 136.8c-3.1-21.1 7.3-41.9 26.1-52 12.4-6.6 25.3-7 38.6-4.3 1.4.2 2.8-.1 3.9-1 22.9-25.2 58.7-23.8 81.6-10.7 2.2 1.3 3.8 1.1 6 0 23.3-11.9 46.6-13.3 69.6.8 4.1 2.5 7.7 6.1 11.3 9.4 1.6 1.5 2.9 2.1 5.2 1.6 18.8-4 35.9-.9 49.8 13.1 13.1 13.2 17.5 29.1 13.5 47.3-3 13.9-10.3 25.8-18 37.5-4.8 7.3-10 14.3-15.1 21.4-.6.9-1.8 2-2.7 2-11.9-.1-23.9-.1-36.7-.1zm-79.8 48.8H52.9c-4.6 0-8.8-.7-12.2-4-4.4-4.1-5.8-10.4-3.7-16 2.2-5.8 7.8-9.6 14-9.5h205.6c7.6-.1 14 5.5 14.9 13.1 1 6.7-3.8 13.9-10.7 15.8-2.1.5-4.3.7-6.5.6H153.7zm24.7-226.1c-.1 13.7-11.3 24.6-24.9 24.5-13.3-.1-24.1-10.7-24.5-24-.2-13.6 10.6-24.8 24.2-25h.2c14.1-.1 25 10.6 25 24.5z" id="Layer_1-2"/></g></svg>