<svg id="Layer_1" xmlns="http://www.w3.org/2000/svg" viewBox="0 0 80 80"><style>.st0{fill:#f98100}</style><circle class="st0" cx="40" cy="40" r="6"/><path class="st0" d="M50 24.3H30c-3.2 0-5.8 2.6-5.8 5.8V50c0 3.2 2.6 5.8 5.8 5.8h20c3.2 0 5.8-2.6 5.8-5.8V30c-.1-3.2-2.6-5.7-5.8-5.7zM40 50.4c-5.7 0-10.4-4.7-10.4-10.4S34.3 29.6 40 29.6 50.4 34.3 50.4 40 45.7 50.4 40 50.4zm10.7-18.6c-1.4 0-2.5-1.1-2.5-2.5s1.1-2.5 2.5-2.5 2.5 1.1 2.5 2.5-1.1 2.5-2.5 2.5z"/><path class="st0" d="M40 0C17.9 0 0 17.9 0 40s17.9 40 40 40 40-17.9 40-40S62.1 0 40 0zm20.3 50.1c0 5.6-4.6 10.2-10.2 10.2H29.9c-5.6 0-10.2-4.6-10.2-10.2V29.9c0-5.6 4.6-10.2 10.2-10.2H50c5.6 0 10.2 4.6 10.2 10.2l.1 20.2z"/></svg>