<svg id="Capa_1" xmlns="http://www.w3.org/2000/svg" viewBox="0 0 80 80"><style>.st0{fill:#f98100}</style><path class="st0" d="M40 0C17.9 0 0 17.9 0 40s17.9 40 40 40 40-17.9 40-40S62.1 0 40 0zm20.7 32v1.3c0 13.4-10.2 28.9-28.9 28.9-5.7 0-11.1-1.7-15.6-4.6.8.1 1.6.1 2.4.1 4.8 0 9.1-1.6 12.6-4.3-4.4-.1-8.2-3-9.5-7.1.6.1 1.3.2 1.9.2.9 0 1.8-.1 2.7-.4-4.6-.9-8.1-5-8.1-10V36c1.4.8 2.9 1.2 4.6 1.3-2.7-1.8-4.5-4.9-4.5-8.5 0-1.9.5-3.6 1.4-5.1 5 6.1 12.5 10.2 20.9 10.6-.2-.7-.3-1.5-.3-2.3 0-5.6 4.5-10.2 10.2-10.2 2.9 0 5.6 1.2 7.4 3.2 2.3-.5 4.5-1.3 6.4-2.5-.8 2.4-2.4 4.4-4.5 5.6 2.1-.2 4-.8 5.8-1.6-1.2 2.2-2.9 4-4.9 5.5z"/></svg>